<?xml version="1.0" standalone="no"?><!DOCTYPE svg PUBLIC "-//W3C//DTD SVG 1.1//EN" "http://www.w3.org/Graphics/SVG/1.1/DTD/svg11.dtd"><svg t="1687772174457" class="icon" viewBox="0 0 1024 1024" version="1.1" xmlns="http://www.w3.org/2000/svg" p-id="8313" xmlns:xlink="http://www.w3.org/1999/xlink" width="128" height="128"><path d="M1004.704 411.54l-4.861-52.189c-21.844 4.839-61.897 10.921-92.223 10.921-139.573 0-128.649-162.634-294.906-162.634-148.069 0-277.92 70.395-342.25 197.825-3.642-1.207-8.484-1.207-13.344-1.207-21.844 0-43.691 16.987-58.254 36.411l-70.394-59.474-123.788 149.275 222.089 196.604 135.93-146.853-67.959-58.252c14.564-16.986 26.689-32.764 26.689-55.813 0-10.924-2.422-21.846-7.282-30.348 41.267-76.453 110.443-126.224 201.462-128.645-6.063 80.096-3.642 143.21-7.281 195.398-8.503 133.493-49.755 200.244-336.172 293.687v60.677c197.821-20.626 353.155-78.879 438.113-242.716 111.655 31.55 182.043 157.772 182.043 311.889 0 20.64-2.425 44.908-3.643 66.753h72.819c10.919-48.549 15.78-95.879 15.78-140.772 0-139.569-57.033-258.497-185.68-321.607l31.549-184.477c32.764 46.125 80.097 99.519 134.709 99.519 38.847 0 111.663-19.406 146.854-33.969v0zM291.106 468.571c0 10.921-10.922 23.065-19.423 33.984l-49.751-42.479c8.485-10.925 19.407-25.487 35.189-25.487l-4.859 12.14 37.628 15.782c0 2.421 1.217 3.643 1.217 6.062z" fill="#515151" p-id="8314" data-spm-anchor-id="a313x.7781069.0.i2" class="selected"></path><path d="M711.020 97.21c0-42.485-35.209-77.676-77.678-77.676-42.471 0-77.677 35.189-77.677 77.676 0 42.471 35.205 77.66 77.677 77.66 42.468 0 77.678-35.189 77.678-77.66z" fill="#515151" p-id="8315" data-spm-anchor-id="a313x.7781069.0.i3" class="selected"></path></svg>